<svg width="115" height="48" viewBox="0 0 115 48" fill="none" xmlns="http://www.w3.org/2000/svg">
  <path d="M14.3 10H24.5C30.4 10 34.5 14 34.5 19.6C34.5 25.2 30.4 29.2 24.5 29.2H20.1V38H14.3V10ZM24 24.2C26.8 24.2 28.6 22.5 28.6 19.6C28.6 16.7 26.8 15 24 15H20.1V24.2H24Z" fill="#D52B1E"/>
  <path d="M35.8 24C35.8 16.1 41.9 10 50.2 10C58.5 10 64.6 16.1 64.6 24C64.6 31.9 58.5 38 50.2 38C41.9 38 35.8 31.9 35.8 24ZM58.7 24C58.7 19.5 55.1 15.3 50.2 15.3C45.3 15.3 41.7 19.5 41.7 24C41.7 28.5 45.3 32.7 50.2 32.7C55.1 32.7 58.7 28.5 58.7 24Z" fill="#D52B1E"/>
  <path d="M73.9 10H68.1V38H73.9V10Z" fill="#0284C7"/>
  <path d="M77.3 10H83.1V32.8H95.5V38H77.3V10Z" fill="#0284C7"/>
  <path d="M97.5 10H103.3V32.8H115.7V38H97.5V10Z" fill="#0284C7"/>
  <circle cx="6" cy="24" r="6" fill="#D52B1E"/>
</svg>