<svg width="32" height="32" viewBox="0 0 32 32" fill="none" xmlns="http://www.w3.org/2000/svg">
  <rect width="32" height="32" rx="6" fill="white"/>
  <path d="M6.3 8H10.5C13.4 8 15.5 10 15.5 12.6C15.5 15.2 13.4 17.2 10.5 17.2H8.7V22H6.3V8ZM10.3 15.2C11.8 15.2 12.8 14.1 12.8 12.6C12.8 11 11.8 10 10.3 10H8.7V15.2H10.3Z" fill="#D52B1E"/>
  <path d="M16.5 15C16.5 10.6 19.65 7.5 23.8 7.5C27.95 7.5 31.1 10.6 31.1 15C31.1 19.4 27.95 22.5 23.8 22.5C19.65 22.5 16.5 19.4 16.5 15ZM28.55 15C28.55 12.25 26.55 9.75 23.8 9.75C21.05 9.75 19.05 12.25 19.05 15C19.05 17.75 21.05 20.25 23.8 20.25C26.55 20.25 28.55 17.75 28.55 15Z" fill="#D52B1E"/>
  <circle cx="3" cy="15" r="3" fill="#D52B1E"/>
</svg>