<?xml version="1.0" encoding="UTF-8"?>
<svg width="309px" height="52px" viewBox="0 0 309 52" version="1.1" xmlns="http://www.w3.org/2000/svg" xmlns:xlink="http://www.w3.org/1999/xlink">
    <title>Group 11</title>
    <defs>
        <polygon id="path-1" points="0 0.5544 30.933288 0.5544 30.933288 34.461288 0 34.461288"></polygon>
        <polygon id="path-3" points="0.526176 0.5544 31.790016 0.5544 31.790016 40.320648 0.526176 40.320648"></polygon>
    </defs>
    <g id="Index" stroke="none" stroke-width="1" fill="none" fill-rule="evenodd">
        <g transform="translate(-100.000000, -33.000000)" id="Group-11">
            <g transform="translate(100.000000, 33.000000)">
                <polygon id="Fill-1" fill="#005E9D" points="35.80632 51.28596 43.87032 51.28596 43.87032 43.22124 35.80632 43.22124"></polygon>
                <g id="Group-10" transform="translate(0.000000, 0.165960)">
                    <g id="Group-4">
                        <mask id="mask-2" fill="white">
                            <use xlink:href="#path-1"></use>
                        </mask>
                        <g id="Clip-3"></g>
                        <path d="M30.933288,33.603048 C30.008088,31.620168 29.875608,30.628008 29.875608,26.794728 L29.875608,13.310568 C29.875608,10.270728 29.545128,8.221608 28.884168,6.635448 C27.099288,2.602728 22.671288,0.554328 15.862968,0.554328 C10.575288,0.554328 6.477768,2.008728 4.229928,4.718088 C2.908008,6.304968 2.313288,7.891128 1.916568,10.997928 L9.452088,10.997928 C9.716328,7.957368 12.029688,6.238728 15.796728,6.238728 C19.300248,6.238728 21.679848,7.957368 21.679848,10.401768 C21.679848,12.384648 20.357928,13.245048 16.656408,13.641048 C11.963448,14.170248 8.592408,14.962968 6.279048,16.020648 C2.247048,17.938008 -7.2e-05,20.977848 -7.2e-05,24.613848 C-7.2e-05,30.033288 5.353848,34.461288 11.897208,34.461288 C15.598728,34.461288 18.771048,33.272568 22.208328,30.628008 L23.133528,33.603048 L30.933288,33.603048 Z M22.010328,21.109608 C22.010328,23.687928 21.481128,25.009128 20.027448,26.133768 C18.440568,27.389448 16.259688,28.050408 13.880088,28.050408 C10.509048,28.050408 8.261928,26.464248 8.261928,24.217128 C8.261928,22.762008 8.989128,21.638808 10.575288,20.713608 C11.699208,19.986408 13.219128,19.523448 16.920648,18.598968 C19.762488,17.938008 20.489688,17.673048 22.010328,16.681608 L22.010328,21.109608 Z" id="Fill-2" fill="#939597" mask="url(#mask-2)"></path>
                    </g>
                    <g id="Group-7" transform="translate(35.280000, 0.000000)">
                        <mask id="mask-4" fill="white">
                            <use xlink:href="#path-3"></use>
                        </mask>
                        <g id="Clip-6"></g>
                        <path d="M31.790016,17.673048 C31.790016,7.693128 25.907616,0.554328 17.777376,0.554328 C13.679136,0.554328 11.035296,2.008728 8.590176,5.644008 L8.590176,1.413288 L0.526176,1.413288 L0.526176,40.320648 L8.590176,40.320648 L8.590176,29.174328 C11.564496,33.073848 14.009616,34.461288 17.976096,34.461288 C26.105616,34.461288 31.790016,27.521928 31.790016,17.673048 M23.528016,17.739288 C23.528016,23.886648 20.487456,28.050408 15.992496,28.050408 C11.365776,28.050408 8.193456,23.820408 8.193456,17.607528 C8.193456,11.195928 11.300256,6.965928 15.992496,6.965928 C20.619936,6.965928 23.528016,11.129688 23.528016,17.739288" id="Fill-5" fill="#939597" mask="url(#mask-4)"></path>
                    </g>
                    <path d="M75.453048,33.916608 L97.663608,33.916608 L97.663608,31.195008 L78.708888,31.195008 L78.708888,18.607248 L95.719608,18.607248 L95.719608,15.982848 L78.708888,15.982848 L78.708888,4.270608 L97.225848,4.270608 L97.225848,1.500768 L75.453048,1.500768 L75.453048,33.916608 Z M100.141128,33.916608 L103.931928,33.916608 L113.020488,20.309328 L122.011128,33.916608 L125.850888,33.916608 L114.770088,17.538048 L125.559288,1.500768 L122.011128,1.500768 L113.020488,14.816448 L104.175288,1.500768 L100.335528,1.500768 L111.173688,17.538048 L100.141128,33.916608 Z M130.224168,33.916608 L152.434728,33.916608 L152.434728,31.195008 L133.480728,31.195008 L133.480728,18.607248 L150.490728,18.607248 L150.490728,15.982848 L133.480728,15.982848 L133.480728,4.270608 L151.997688,4.270608 L151.997688,1.500768 L130.224168,1.500768 L130.224168,33.916608 Z M181.885608,22.398048 C181.157688,28.035648 177.025608,31.778208 171.534168,31.778208 C164.632248,31.778208 160.210008,26.335008 160.210008,17.879328 C160.210008,9.033408 164.535768,3.688128 171.728568,3.688128 C176.734008,3.688128 179.844408,5.971248 181.351368,10.734048 L184.510008,10.734048 C182.906568,4.221648 178.630488,0.869328 171.874008,0.869328 C166.480488,0.869328 162.640008,2.763648 159.918408,6.797808 C157.877208,9.811728 156.953448,13.164048 156.953448,17.440848 C156.953448,28.084608 162.445608,34.548048 171.437688,34.548048 C178.921368,34.548048 183.878568,30.076848 184.996728,22.398048 L181.885608,22.398048 Z M190.390968,1.500768 L190.390968,22.398048 C190.390968,25.314048 190.632888,27.160848 191.265768,28.619568 C192.820968,32.361408 196.853688,34.548048 202.247928,34.548048 C206.769528,34.548048 210.413448,32.944608 212.406408,30.076848 C213.718248,28.181808 214.301448,25.751808 214.301448,22.155408 L214.301448,1.500768 L211.045608,1.500768 L211.045608,21.912048 C211.045608,24.682608 210.948408,25.751808 210.510648,27.015408 C209.393208,30.076848 206.525448,31.778208 202.345848,31.778208 C198.943848,31.778208 196.270488,30.562848 194.861448,28.424448 C193.889448,26.966448 193.646088,25.702848 193.646088,22.252608 L193.646088,1.500768 L190.390968,1.500768 Z M229.269528,33.916608 L232.526088,33.916608 L232.526088,4.270608 L242.975448,4.270608 L242.975448,1.500768 L218.723688,1.500768 L218.723688,4.270608 L229.269528,4.270608 L229.269528,33.916608 Z M247.640328,33.916608 L250.945128,33.916608 L250.945128,1.500768 L247.640328,1.500768 L247.640328,33.916608 Z M266.740488,33.916608 L269.898408,33.916608 L281.660328,1.500768 L278.502408,1.500768 L268.441128,30.029328 L258.769368,1.500768 L255.465288,1.500768 L266.740488,33.916608 Z M286.180488,33.916608 L308.389608,33.916608 L308.389608,31.195008 L289.435608,31.195008 L289.435608,18.607248 L306.445608,18.607248 L306.445608,15.982848 L289.435608,15.982848 L289.435608,4.270608 L307.952568,4.270608 L307.952568,1.500768 L286.180488,1.500768 L286.180488,33.916608 Z" id="Fill-8" fill="#005E9D"></path>
                </g>
            </g>
        </g>
    </g>
</svg>