<svg id="Layer_1" data-name="Layer 1" xmlns="http://www.w3.org/2000/svg" viewBox="0 0 680.31 231.42"><defs><style>.cls-1{fill:#c00;}.cls-2{fill:#fff;}.cls-3{fill:#fc0;fill-rule:evenodd;}</style></defs><rect class="cls-1" width="680.31" height="231.42"/><polygon class="cls-2" points="352.46 62.02 352.46 78.42 361.3 78.42 352.77 107.8 339.98 61.74 321.88 61.74 309.09 107.8 300.56 78.42 309.39 78.42 309.39 62.02 273.69 62.02 273.69 78.42 280.35 78.42 299.64 144.86 300.02 144.86 317.7 144.86 330.93 96.27 344.16 144.86 361.85 144.86 362.22 144.86 381.51 78.42 388.17 78.42 388.17 62.02 352.46 62.02"/><path class="cls-2" d="M235.47,61.46a43,43,0,1,0,43,43A43,43,0,0,0,235.47,61.46Zm0,65.11a22.1,22.1,0,1,1,22.1-22.1A22.1,22.1,0,0,1,235.47,126.57Z"/><path class="cls-2" d="M183.34,127.1l-8-10.93a29.14,29.14,0,0,0-13.28-55H122.12V80.4h6.63v45.5h-6.63v19.28h30.75V125.9h-3.35v-9.19h1.35l20.87,28.47h21V127.1ZM149.52,80.4h10.06a11.28,11.28,0,0,1,0,22.45h-10Z"/><path class="cls-2" d="M118.2,93.43V61.12H101v7.23c-5-6.33-14.21-8.44-22.43-8.44A42.83,42.83,0,1,0,120,113.55H97.88a22.12,22.12,0,1,1,.73-20.19Z"/><polygon class="cls-2" points="480.59 79.31 480.59 62.91 444.88 62.91 444.88 79.31 453.71 79.31 453.71 113.06 421.56 62 391.77 62.02 391.77 78.42 398.44 78.42 398.44 128.16 391.77 128.16 391.77 144.56 427.48 144.56 427.48 128.16 418.64 128.16 418.64 94.18 450.79 145.22 473.92 145.21 473.92 79.31 480.59 79.31"/><path class="cls-3" d="M544.57,132.63a3.33,3.33,0,1,0,3.32-3.33A3.32,3.32,0,0,0,544.57,132.63ZM559,136.74a3.33,3.33,0,1,0,3.32-3.32A3.33,3.33,0,0,0,559,136.74Zm15.28,1.18a3.33,3.33,0,1,0,3.33-3.33A3.32,3.32,0,0,0,574.31,137.92Zm15.4-1.06a3.33,3.33,0,1,0,3.33-3.33A3.33,3.33,0,0,0,589.71,136.86Zm14.58-4.47a3.33,3.33,0,1,0,3.33-3.32A3.33,3.33,0,0,0,604.29,132.39ZM573.4,105.82v9.64h8.47v-9.64Zm52.41-1.64a3.33,3.33,0,1,0,3.33-3.33A3.33,3.33,0,0,0,625.81,104.18Zm7.88-12.82A3.33,3.33,0,1,0,637,88,3.33,3.33,0,0,0,633.69,91.36Zm-.59-14.93a3.33,3.33,0,1,0,3.32-3.33A3.33,3.33,0,0,0,633.1,76.43ZM625,64.2a3.33,3.33,0,1,0,3.32-3.32A3.33,3.33,0,0,0,625,64.2Zm-13.41-6.35a3.33,3.33,0,1,0,3.33-3.32A3.33,3.33,0,0,0,611.58,57.85Zm-15.05.94a3.33,3.33,0,1,0,3.33-3.32A3.33,3.33,0,0,0,596.53,58.79Zm-22.22,25.4a3.33,3.33,0,1,0,3.33-3.33A3.33,3.33,0,0,0,574.31,84.19Zm0-13a3.33,3.33,0,1,0,3.33-3.33A3.33,3.33,0,0,0,574.31,71.14Zm-51.26,33.27a3.33,3.33,0,1,0,3.33-3.32A3.33,3.33,0,0,0,523.05,104.41Zm-8-12.93a3.33,3.33,0,1,0,3.32-3.33A3.31,3.31,0,0,0,515.06,91.48Zm.35-15a3.33,3.33,0,1,0,3.32-3.33A3.33,3.33,0,0,0,515.41,76.43Zm8.35-12.34a3.33,3.33,0,1,0,3.32-3.33A3.32,3.32,0,0,0,523.76,64.09ZM537,58a3.33,3.33,0,1,0,3.33-3.32A3.33,3.33,0,0,0,537,58Zm15.14,1a3.33,3.33,0,1,0,3.32-3.32A3.32,3.32,0,0,0,552.18,59Zm22.13-1a3.33,3.33,0,1,0,3.33-3.32A3.33,3.33,0,0,0,574.31,58ZM590,75.39a212.16,212.16,0,0,0,0,24.45c1.41-.7,2.58-2.11,4-3.06v27.05c-1.88-1.65-3.52-4-6.34-3.53-.94.23-.48,1.64-.48,2.35a8.85,8.85,0,0,0,5.41,5.41,10.55,10.55,0,0,0,6.59-.24,9.4,9.4,0,0,0,6.35-9.64c-.24-2.35-1.41-4.47-3.77-5.17-1.64-.47-3.52.47-4.7,1.88-.47.71-.94-.71-1.17-1.18a5.85,5.85,0,0,1,.7-5.17,7.91,7.91,0,0,1,4.7-3.06c.24-.23.71-.47.47-.94-.7-2.82,0-5.4.24-8.23,0-1.88-.24-4,1.65-5.17.23-.23.94,0,1.17,0,4.23,2.12,6.82,6.11,9.88,9.64a17.61,17.61,0,0,0,11.52-11.52c1.88-7.52-1.65-15.75-8.47-19.05-6.58-3.52-14.34-3-20.92,0A18.21,18.21,0,0,0,590,75.39ZM565.18,75a18.19,18.19,0,0,0-6.83-5.17c-6.58-3.06-14.34-3.53-20.92,0-6.82,3.29-10.35,11.52-8.47,19a17.64,17.64,0,0,0,11.52,11.52c3.06-3.52,5.65-7.52,9.88-9.64.24,0,.94-.23,1.18,0,1.88,1.18,1.64,3.3,1.64,5.18.24,2.82.94,5.4.24,8.23-.24.47.23.7.47.94a7.94,7.94,0,0,1,4.7,3,5.91,5.91,0,0,1,.71,5.18c-.24.47-.71,1.88-1.18,1.17-1.18-1.41-3.06-2.35-4.7-1.88-2.35.71-3.53,2.82-3.76,5.17a9.41,9.41,0,0,0,6.34,9.65,10.55,10.55,0,0,0,6.59.23,8.8,8.8,0,0,0,5.41-5.41c0-.7.47-2.11-.47-2.35-2.83-.47-4.47,1.88-6.35,3.53v-27c1.41.94,2.58,2.35,4,3A216.77,216.77,0,0,0,565.18,75ZM587.51,48.8a2.9,2.9,0,0,0,4.24,2.12,40.25,40.25,0,0,1,24-3.53,37.24,37.24,0,0,1,29.16,52.67c-4.23,9.64-13.17,16.46-22.81,20.46v25.86H532.49V120.52c-9.88-4-18.81-11-23.05-20.93a37,37,0,0,1,3.06-36.45c5.41-8,13.17-12.69,22.11-15.28,9.64-2.59,19.28-.7,28.21,3.29a4,4,0,0,0,2.36,0s1.52-.11,2.7-2.35ZM588.63,47H566.76L577.7,36.1Zm1.12-23.1V45.8L578.81,34.87Zm-23-1.27h21.87L577.71,33.61Zm-1.2,23.11V23.92L576.5,34.85Z"/><path class="cls-2" d="M50.81,195v-.59a1.65,1.65,0,0,0,.85-.37,1.32,1.32,0,0,0,.2-.84V174.76a1.32,1.32,0,0,0-.2-.84,1.71,1.71,0,0,0-.85-.39V173H66.13a10,10,0,0,1,6.41,1.83,6.25,6.25,0,0,1,2.29,5.14,6.51,6.51,0,0,1-1.43,4.29,8.31,8.31,0,0,1-4.23,2.56l3.28,5.15a8.79,8.79,0,0,0,1.38,1.87,2.66,2.66,0,0,0,1.16.61V195H66.13l0-.59a1.16,1.16,0,0,0,.52-.28.58.58,0,0,0,.18-.42,1.73,1.73,0,0,0-.39-.84l-.25-.35-3.61-5.66H58.07v6.34a1.23,1.23,0,0,0,.21.81,1.8,1.8,0,0,0,.88.4V195Zm7.26-17.59v5h5.42a8.39,8.39,0,0,0,3.73-.61,2,2,0,0,0,1.15-1.91A2,2,0,0,0,67.29,178a9.7,9.7,0,0,0-4-.55Z"/><path class="cls-2" d="M128.61,189.79a1.3,1.3,0,0,0,.81-.19,1.75,1.75,0,0,0,.4-.85h.59v7.3h-.59a1.71,1.71,0,0,0-.39-.85,1.29,1.29,0,0,0-.82-.2H108.69v-.59a1.65,1.65,0,0,0,.85-.37,1.32,1.32,0,0,0,.2-.84V174.76a1.32,1.32,0,0,0-.2-.84,1.71,1.71,0,0,0-.85-.39V173h20a1.23,1.23,0,0,0,.81-.22,1.7,1.7,0,0,0,.36-.87h.59v7.34h-.59a1.86,1.86,0,0,0-.35-.85,1,1,0,0,0-.66-.2H116v3.1h7.61a1.33,1.33,0,0,0,.83-.19,1.82,1.82,0,0,0,.44-.85h.58v6.84h-.6a1.65,1.65,0,0,0-.43-.85,1.34,1.34,0,0,0-.82-.19H116v3.77Z"/><path class="cls-2" d="M185.89,189.79a1.27,1.27,0,0,0,.81-.19,1.67,1.67,0,0,0,.4-.85h.6v7.3h-.6a1.71,1.71,0,0,0-.39-.85,1.27,1.27,0,0,0-.82-.2H165.06v-.59a1.65,1.65,0,0,0,.85-.37,1.33,1.33,0,0,0,.19-.84V174.76a1.33,1.33,0,0,0-.19-.84,1.71,1.71,0,0,0-.85-.39V173h8.34v.57a1.75,1.75,0,0,0-.88.4,1.32,1.32,0,0,0-.2.83v15Z"/><path class="cls-2" d="M231.64,195.37a13.55,13.55,0,0,1-9.32-3.26,10.92,10.92,0,0,1,0-16.31,15.1,15.1,0,0,1,18.67,0,10.92,10.92,0,0,1,0,16.31A13.52,13.52,0,0,1,231.64,195.37ZM225.09,184a6,6,0,0,0,1.79,4.56,6.65,6.65,0,0,0,4.8,1.71,6.5,6.5,0,0,0,4.73-1.72,6.65,6.65,0,0,0,0-9.1,7.31,7.31,0,0,0-9.49,0A6,6,0,0,0,225.09,184Z"/><path class="cls-2" d="M297,180.83a1.11,1.11,0,0,0,.07-.16.66.66,0,0,0,0-.21c0-.6-.69-1.17-2.09-1.7a12.86,12.86,0,0,0-4.61-.8,9.14,9.14,0,0,0-5.68,1.62,5.14,5.14,0,0,0-2.14,4.29,5,5,0,0,0,2,4.21,9,9,0,0,0,5.55,1.55,14.3,14.3,0,0,0,3.46-.36,12.32,12.32,0,0,0,2.94-1.2,1.74,1.74,0,0,0,.53-.39.63.63,0,0,0,.13-.41,1.68,1.68,0,0,0,0-.29c0-.11-.05-.22-.08-.35l.5-.28,4.2,6.85-.55.24c-.19-.17-.36-.31-.48-.4a.61.61,0,0,0-.32-.13,3.67,3.67,0,0,0-1,.37,21.13,21.13,0,0,1-9.23,2.09q-6.51,0-10.35-3.12A10.13,10.13,0,0,1,276,184a10.24,10.24,0,0,1,3.76-8.22q3.75-3.16,9.9-3.16a22.58,22.58,0,0,1,6.47,1c2.15.64,3.25.95,3.27.95a1.13,1.13,0,0,0,.52-.16,3,3,0,0,0,.53-.51l.51.2-3.48,7.06Z"/><path class="cls-2" d="M350.91,195v-.59a1.4,1.4,0,0,0,.6-.28.63.63,0,0,0,.2-.48,1.34,1.34,0,0,0-.06-.36c0-.14-.11-.35-.21-.61l-.88-2.37H340.32l-.9,2.37c-.05.14-.09.27-.12.38a1.37,1.37,0,0,0,0,.34,1,1,0,0,0,.21.64,1.47,1.47,0,0,0,.67.37V195h-7.51v-.59a4.57,4.57,0,0,0,1.85-2.69c0-.15.1-.26.12-.33l5.81-15.87c.11-.32.19-.59.26-.82a2.13,2.13,0,0,0,.11-.49.7.7,0,0,0-.15-.49.8.8,0,0,0-.49-.19V173h11v.57a.83.83,0,0,0-.49.19.7.7,0,0,0-.14.49,1.91,1.91,0,0,0,.11.49c.07.24.17.52.28.82l7,17.68,0,.06a1.86,1.86,0,0,0,1.07,1.15V195Zm-9.25-8.37H349l-3.81-9.7Z"/><path class="cls-2" d="M402.76,178.37V193.2a1.33,1.33,0,0,0,.19.84,1.69,1.69,0,0,0,.86.37V195h-8.37v-.59a2,2,0,0,0,.85-.37,1,1,0,0,0,.19-.68v-15H389.9a1.33,1.33,0,0,0-.82.2,1.71,1.71,0,0,0-.41.85h-.57v-7.55h.57a1.75,1.75,0,0,0,.4.88,1.26,1.26,0,0,0,.83.21h19.44a1.24,1.24,0,0,0,.83-.21,1.61,1.61,0,0,0,.38-.88h.6v7.55h-.6a1.49,1.49,0,0,0-.39-.85,1.31,1.31,0,0,0-.82-.2Z"/><path class="cls-2" d="M444.38,195v-.59a1.65,1.65,0,0,0,.85-.37,1.32,1.32,0,0,0,.2-.84V174.76a1.32,1.32,0,0,0-.2-.84,1.71,1.71,0,0,0-.85-.39V173h8.35v.57a1.75,1.75,0,0,0-.89.4,1.32,1.32,0,0,0-.2.83V193.2a1.3,1.3,0,0,0,.2.81,1.84,1.84,0,0,0,.89.4V195Z"/><path class="cls-2" d="M498.39,195.37a13.55,13.55,0,0,1-9.32-3.26,10.92,10.92,0,0,1,0-16.31,15.1,15.1,0,0,1,18.67,0,10.92,10.92,0,0,1,0,16.31A13.52,13.52,0,0,1,498.39,195.37ZM491.84,184a6,6,0,0,0,1.79,4.56,6.65,6.65,0,0,0,4.8,1.71,6.5,6.5,0,0,0,4.73-1.72,6.65,6.65,0,0,0,0-9.1,7.31,7.31,0,0,0-9.49,0A6,6,0,0,0,491.84,184Z"/><path class="cls-2" d="M550.55,193.2a1.33,1.33,0,0,0,.19.84,1.65,1.65,0,0,0,.85.37V195h-7.42v-.59A1.69,1.69,0,0,0,545,194a1.33,1.33,0,0,0,.19-.84V174.76a1.33,1.33,0,0,0-.19-.84,1.76,1.76,0,0,0-.85-.39V173h9.66v.57a1.61,1.61,0,0,0-.63.31.54.54,0,0,0-.21.41c0,.16.15.41.47.76a1.9,1.9,0,0,1,.2.22l9.27,10.15V174.76a1.32,1.32,0,0,0-.2-.83,1.75,1.75,0,0,0-.88-.4V173h7.56v.57a1.8,1.8,0,0,0-.89.4,1.26,1.26,0,0,0-.21.83V193.2a1.23,1.23,0,0,0,.21.81,1.89,1.89,0,0,0,.89.4V195h-8v-.59a1.51,1.51,0,0,0,.61-.29.54.54,0,0,0,.21-.41c0-.18-.2-.49-.58-.92l-.08-.09-11.05-12.1Z"/><path class="cls-2" d="M621.74,179.76a1.35,1.35,0,0,1,.07-.31,1.44,1.44,0,0,0,.05-.24c0-.6-.82-1.16-2.46-1.67a18.42,18.42,0,0,0-5.48-.77,10,10,0,0,0-4,.66c-1,.43-1.49,1-1.49,1.7,0,1,1.93,1.63,5.74,1.82l1.41.07q5.34.28,7.71,1.86a5.37,5.37,0,0,1,2.36,4.78,6.35,6.35,0,0,1-3.13,5.46,14.45,14.45,0,0,1-8.25,2.13,31.22,31.22,0,0,1-10.76-1.77,3.72,3.72,0,0,0-.66-.2.56.56,0,0,0-.33.12,3.44,3.44,0,0,0-.51.56l-.55-.25,3.07-6.73.53.27a1.07,1.07,0,0,0-.07.15c0,.06,0,.14,0,.22q0,1.24,2.85,2.34a18.19,18.19,0,0,0,6.48,1.08,9,9,0,0,0,4-.73,2.24,2.24,0,0,0,1.47-2q0-2.31-6.11-2.53c-.3,0-.54,0-.7,0q-5.13-.18-7.66-1.73a5,5,0,0,1-2.53-4.52,5.78,5.78,0,0,1,3-5,14.19,14.19,0,0,1,7.82-1.92,23.73,23.73,0,0,1,6.36.92c2.23.61,3.41.92,3.53.92a1.34,1.34,0,0,0,.62-.11,1.22,1.22,0,0,0,.38-.42l.54.24L622.27,180Z"/></svg>