<svg xmlns="http://www.w3.org/2000/svg" viewBox="0 0 105.86 25.93"><defs><style>.cls-1{fill:#cf202d;}.cls-2{fill:#231f20;}</style></defs><title>expat-savvy-logo</title><g id="Layer_2" data-name="Layer 2"><g id="Layer_1-2" data-name="Layer 1"><path class="cls-1" d="M13,0a13,13,0,1,0,13,13A13,13,0,0,0,13,0Zm0,25.28A12.32,12.32,0,1,1,25.28,13,12.33,12.33,0,0,1,13,25.28Zm.74-1.48V18.5H15v3.68c3.31-.27,7.28-4.06,7.41-8.16l-.85,0H13.66v-.46a.71.71,0,0,1,0-.15c0-3.55,0-7.1,0-10.65V2a10.08,10.08,0,0,1,1.45.13h.06a11.23,11.23,0,0,1,7.57,5.89H21.24l-.41-.58,0,0,0,0a9.58,9.58,0,0,0-5.66-3.76v9h8.77C24.32,18.85,18.78,23.88,13.71,23.8ZM10.89,8.13V3.78h0V3.54a6.66,6.66,0,0,0-2,.63l0,0h0l-.06,0-.07,0h0l-.08,0-.12.07,0,0h0C5.76,5.85,3.25,9.56,3.41,12.59H12.2V14H3.49c.09,3.77,3.65,7.78,7.38,8.23V18.5h1.35v5.4A10.6,10.6,0,0,1,3.8,19,10.47,10.47,0,0,1,3.43,7.5,10.66,10.66,0,0,1,12.23,2V8.13ZM8.48,4.39l0,0Z"/><path class="cls-2" d="M35.43,15.07v-1.4h3.42V12H35.43v-1.3h3.88V9.06h-6v7.7h6.19V15.07Z"/><path class="cls-2" d="M45.11,12.77l2.68-3.71H45.44l-1.52,2.22L42.38,9.06H39.93l2.68,3.8-2.8,3.9h2.48l1.58-2.39,1.59,2.39H48Z"/><path class="cls-2" d="M55,10.39a2.71,2.71,0,0,0-1.19-1A4.4,4.4,0,0,0,52,9.06H48.48v7.7h2.17v-2H52a4.4,4.4,0,0,0,1.81-.34,2.71,2.71,0,0,0,1.19-1,2.66,2.66,0,0,0,.42-1.5A2.73,2.73,0,0,0,55,10.39Zm-2.12,2.35a1.57,1.57,0,0,1-1,.29H50.65V10.77h1.21a1.51,1.51,0,0,1,1,.3,1.2,1.2,0,0,1,0,1.67Z"/><path class="cls-2" d="M60.71,9.06H58.56l-3.4,7.7h2.23l.6-1.5h3.26l.6,1.5h2.27Zm-2.08,4.59,1-2.46,1,2.46Z"/><path class="cls-2" d="M63.62,9.06v1.72H66v6h2.18v-6h2.35V9.06Z"/><path class="cls-2" d="M76.45,13.6a2.22,2.22,0,0,0-.89-.61,10.21,10.21,0,0,0-1.37-.41q-.7-.18-1.14-.33a1.84,1.84,0,0,1-.7-.43,1,1,0,0,1-.28-.74,1.22,1.22,0,0,1,.51-1,2.5,2.5,0,0,1,1.53-.39,4,4,0,0,1,1.07.16,4.09,4.09,0,0,1,1,.48l.27-.65a3.77,3.77,0,0,0-1.09-.5A4.67,4.67,0,0,0,74.11,9a3.89,3.89,0,0,0-1.59.29,2.07,2.07,0,0,0-.94.76,1.88,1.88,0,0,0-.31,1.06,1.6,1.6,0,0,0,.37,1.13,2.3,2.3,0,0,0,.88.63c.35.13.81.27,1.39.42s.86.23,1.13.32a1.88,1.88,0,0,1,.69.43,1,1,0,0,1,.28.73,1.16,1.16,0,0,1-.52,1,2.62,2.62,0,0,1-1.55.38,4.11,4.11,0,0,1-1.43-.26,3,3,0,0,1-1.11-.68l-.32.63a3.12,3.12,0,0,0,1.22.73,5,5,0,0,0,1.64.27,4,4,0,0,0,1.6-.28,2.13,2.13,0,0,0,1-.76,1.88,1.88,0,0,0,.31-1.06A1.66,1.66,0,0,0,76.45,13.6Z"/><path class="cls-2" d="M81.67,9.06h-.8l-3.52,7.7h.85l.92-2.06h2.51V14H79.42L81.27,9.9l1.67,3.75.17.39.3.66.93,2.06h.85Z"/><path class="cls-2" d="M90.22,9.06l-3,6.68-3-6.68h-.88l3.41,7.7h.81l3.41-7.7Z"/><path class="cls-2" d="M97.87,9.06l-3,6.68L92,9.06h-.88l3.41,7.7h.8l3.41-7.7Z"/><path class="cls-2" d="M105.05,9.06l-2.64,4.32L99.77,9.06H98.9l3.08,5v2.67h.8V14.09l3.08-5Z"/></g></g></svg>