<?xml version="1.0" encoding="UTF-8"?>
<svg xmlns="http://www.w3.org/2000/svg" version="1.1" viewBox="0 0 283.54 147.28">
  <defs>
    <style>
      .cls-1 {
        fill: #b51f1f;
      }
    </style>
  </defs>
  <!-- Generator: Adobe Illustrator 28.7.1, SVG Export Plug-In . SVG Version: 1.2.0 Build 142)  -->
  <g>
    <g id="Ebene_1">
      <path d="M146.45,58.06V0h14.1v46.17h22.47v11.89h-36.57Z"/>
      <path d="M105.52,58.06V0h14.1v46.17h22.47v11.89h-36.57Z"/>
      <path d="M34.86,58.06l-21.07-25.31h-.1v25.31H0V0h13.69v25.03h.1L34.69,0h17.55l-25.01,28.15,25.92,29.91h-18.29Z"/>
      <path d="M267.06,58.06l-12.6-23.04h-4.78v23.04h-13.69V0h22.14c2.79,0,5.51.29,8.16.86,2.65.57,5.03,1.54,7.13,2.91,2.1,1.37,3.78,3.17,5.04,5.41,1.26,2.24,1.89,5.03,1.89,8.36,0,3.94-1.07,7.24-3.2,9.92-2.13,2.68-5.08,4.59-8.86,5.74l15.17,24.85h-16.4ZM266.49,17.79c0-1.37-.29-2.47-.87-3.32-.58-.85-1.32-1.5-2.22-1.97-.91-.46-1.92-.78-3.05-.94-1.13-.16-2.21-.25-3.25-.25h-7.5v13.53h6.67c1.15,0,2.33-.09,3.54-.29,1.21-.19,2.31-.53,3.3-1.02s1.8-1.2,2.43-2.13c.63-.93.95-2.13.95-3.61Z"/>
      <path d="M15.77,74.79c-.65-.91-1.49-1.64-2.51-2.19-1.02-.55-2.25-.77-3.7-.77-.74,0-1.49.06-2.25.28-.77.23-1.46.57-2.08,1.04-.62.47-1.13,1.06-1.51,1.76-.38.71-.57,1.54-.57,2.51s.18,1.76.55,2.38c.37.62.85,1.16,1.46,1.59.61.44,1.3.8,2.08,1.08.78.28,1.59.57,2.44.85,1.05.34,2.1.71,3.16,1.1,1.06.4,2.01.91,2.86,1.55.85.64,1.54,1.44,2.08,2.42.54.98.81,2.22.81,3.72s-.29,2.8-.86,3.89c-.57,1.09-1.32,1.99-2.23,2.7-.92.71-1.96,1.23-3.14,1.57-1.18.34-2.36.51-3.55.51-.91,0-1.81-.09-2.72-.28s-1.77-.46-2.59-.83c-.82-.37-1.59-.84-2.29-1.4-.71-.57-1.33-1.22-1.87-1.96l2.63-1.96c.65,1.08,1.57,1.98,2.74,2.7,1.18.72,2.56,1.03,4.14,1.03.77,0,1.54-.06,2.34-.3.79-.24,1.51-.61,2.15-1.1.64-.5,1.16-1.11,1.57-1.83.41-.72.62-1.56.62-2.53,0-1.05-.21-1.92-.62-2.61-.41-.69-.96-1.27-1.64-1.74s-1.46-.86-2.34-1.17c-.88-.31-1.8-.62-2.76-.93-.99-.31-1.97-.67-2.93-1.06-.96-.4-1.83-.91-2.59-1.55-.77-.64-1.38-1.42-1.85-2.36-.47-.93-.7-2.08-.7-3.44,0-1.45.29-2.69.87-3.74.58-1.05,1.34-1.91,2.27-2.59.94-.68,1.97-1.17,3.1-1.49,1.13-.31,2.25-.47,3.36-.47,2.04,0,3.78.36,5.23,1.08,1.44.72,2.54,1.58,3.27,2.57l-2.42,1.96Z"/>
      <path d="M32.81,95.83h.08l7.52-25.88h3.65l7.52,25.88h.08l7.35-25.88h3.23l-8.88,30.09h-3.57l-7.57-25.84h-.08l-7.56,25.84h-3.57l-8.88-30.09h3.23l7.44,25.88Z"/>
      <path d="M71.41,100.04h-3.06v-30.09h3.06v30.09Z"/>
      <path d="M95.06,74.79c-.65-.91-1.49-1.64-2.51-2.19-1.02-.55-2.25-.77-3.7-.77-.74,0-1.49.06-2.25.28-.77.23-1.46.57-2.08,1.04-.62.47-1.13,1.06-1.51,1.76-.38.71-.57,1.54-.57,2.51s.18,1.76.55,2.38c.37.62.85,1.16,1.46,1.59.61.44,1.3.8,2.08,1.08.78.28,1.59.57,2.44.85,1.05.34,2.1.71,3.16,1.1,1.06.4,2.01.91,2.86,1.55.85.64,1.54,1.44,2.08,2.42.54.98.81,2.22.81,3.72s-.29,2.8-.86,3.89c-.57,1.09-1.32,1.99-2.23,2.7-.92.71-1.96,1.23-3.14,1.57-1.18.34-2.36.51-3.55.51-.91,0-1.81-.09-2.72-.28s-1.77-.46-2.59-.83c-.82-.37-1.59-.84-2.29-1.4-.71-.57-1.33-1.22-1.87-1.96l2.63-1.96c.65,1.08,1.57,1.98,2.74,2.7,1.18.72,2.56,1.03,4.14,1.03.77,0,1.54-.06,2.34-.3.79-.24,1.51-.61,2.15-1.1.64-.5,1.16-1.11,1.57-1.83.41-.72.62-1.56.62-2.53,0-1.05-.21-1.92-.62-2.61-.41-.69-.96-1.27-1.64-1.74s-1.46-.86-2.34-1.17c-.88-.31-1.8-.62-2.76-.93-.99-.31-1.97-.67-2.93-1.06-.96-.4-1.83-.91-2.59-1.55-.77-.64-1.38-1.42-1.85-2.36-.47-.93-.7-2.08-.7-3.44,0-1.45.29-2.69.87-3.74.58-1.05,1.34-1.91,2.27-2.59.94-.68,1.97-1.17,3.1-1.49,1.13-.31,2.25-.47,3.36-.47,2.04,0,3.78.36,5.23,1.08,1.44.72,2.54,1.58,3.27,2.57l-2.42,1.96Z"/>
      <path d="M119.39,74.79c-.65-.91-1.49-1.64-2.51-2.19-1.02-.55-2.25-.77-3.7-.77-.74,0-1.49.06-2.25.28-.77.23-1.46.57-2.08,1.04-.62.47-1.13,1.06-1.51,1.76-.38.71-.57,1.54-.57,2.51s.18,1.76.55,2.38c.37.62.85,1.16,1.46,1.59.61.44,1.3.8,2.08,1.08.78.28,1.59.57,2.44.85,1.05.34,2.1.71,3.16,1.1,1.06.4,2.01.91,2.86,1.55.85.64,1.54,1.44,2.08,2.42.54.98.81,2.22.81,3.72s-.29,2.8-.86,3.89c-.57,1.09-1.32,1.99-2.23,2.7-.92.71-1.96,1.23-3.14,1.57-1.18.34-2.36.51-3.55.51-.91,0-1.81-.09-2.72-.28s-1.77-.46-2.59-.83c-.82-.37-1.59-.84-2.29-1.4-.71-.57-1.33-1.22-1.87-1.96l2.63-1.96c.65,1.08,1.57,1.98,2.74,2.7,1.18.72,2.56,1.03,4.14,1.03.77,0,1.54-.06,2.34-.3.79-.24,1.51-.61,2.15-1.1.64-.5,1.16-1.11,1.57-1.83.41-.72.62-1.56.62-2.53,0-1.05-.21-1.92-.62-2.61-.41-.69-.96-1.27-1.64-1.74s-1.46-.86-2.34-1.17c-.88-.31-1.8-.62-2.76-.93-.99-.31-1.97-.67-2.93-1.06-.96-.4-1.83-.91-2.59-1.55-.77-.64-1.38-1.42-1.85-2.36-.47-.93-.7-2.08-.7-3.44,0-1.45.29-2.69.87-3.74.58-1.05,1.34-1.91,2.27-2.59.94-.68,1.97-1.17,3.1-1.49,1.13-.31,2.25-.47,3.36-.47,2.04,0,3.78.36,5.23,1.08,1.44.72,2.54,1.58,3.27,2.57l-2.42,1.96Z"/>
      <path d="M160.05,86.05h-8.29v-2.59h11.35v14.4c-1.64.99-3.42,1.73-5.31,2.21-1.9.48-3.87.72-5.91.72-2.27,0-4.36-.4-6.29-1.19-1.93-.79-3.58-1.89-4.97-3.29-1.39-1.4-2.47-3.07-3.25-4.99-.78-1.93-1.17-4.04-1.17-6.33s.4-4.41,1.19-6.33c.79-1.93,1.89-3.59,3.29-4.99,1.4-1.4,3.06-2.5,4.97-3.29,1.91-.79,3.99-1.19,6.23-1.19,2.41,0,4.5.36,6.29,1.08,1.79.72,3.31,1.72,4.59,3l-2.12,2.12c-1.05-1.1-2.3-1.96-3.74-2.57-1.45-.61-3.1-.91-4.97-.91s-3.66.35-5.21,1.06c-1.54.71-2.85,1.66-3.93,2.86s-1.91,2.6-2.49,4.18c-.58,1.58-.87,3.25-.87,5.01s.29,3.42.87,5.01c.58,1.58,1.41,2.97,2.49,4.16,1.08,1.19,2.39,2.14,3.93,2.84,1.54.71,3.28,1.06,5.21,1.06,1.7,0,3.26-.18,4.67-.55,1.42-.37,2.56-.83,3.44-1.4v-10.07Z"/>
      <path d="M226.6,84.99c0,2.29-.4,4.41-1.19,6.33-.79,1.93-1.89,3.59-3.29,4.99-1.4,1.4-3.06,2.5-4.97,3.29-1.91.79-3.99,1.19-6.23,1.19s-4.31-.4-6.23-1.19-3.57-1.89-4.97-3.29c-1.4-1.4-2.5-3.07-3.29-4.99-.79-1.93-1.19-4.04-1.19-6.33s.4-4.41,1.19-6.33c.79-1.93,1.89-3.59,3.29-4.99,1.4-1.4,3.06-2.5,4.97-3.29,1.91-.79,3.99-1.19,6.23-1.19s4.31.4,6.23,1.19c1.91.79,3.57,1.89,4.97,3.29,1.4,1.4,2.5,3.07,3.29,4.99.79,1.93,1.19,4.04,1.19,6.33ZM223.37,85.01c0-1.75-.28-3.42-.85-5.01-.57-1.58-1.39-2.98-2.46-4.18-1.08-1.2-2.39-2.16-3.93-2.86-1.54-.71-3.28-1.06-5.21-1.06s-3.66.35-5.21,1.06c-1.54.71-2.86,1.66-3.93,2.86-1.08,1.2-1.9,2.6-2.46,4.18-.57,1.58-.85,3.25-.85,5.01s.28,3.42.85,5.01c.57,1.58,1.39,2.97,2.46,4.16,1.08,1.19,2.39,2.14,3.93,2.84,1.54.71,3.28,1.06,5.21,1.06s3.66-.35,5.21-1.06c1.54-.71,2.85-1.65,3.93-2.84,1.08-1.19,1.9-2.57,2.46-4.16.57-1.58.85-3.25.85-5.01Z"/>
      <path d="M245.02,100.8c-2.27,0-4.12-.39-5.57-1.17-1.45-.78-2.59-1.76-3.44-2.95-.85-1.19-1.44-2.49-1.76-3.89-.33-1.4-.49-2.73-.49-3.97v-18.87h3.06v18.53c0,1.22.14,2.4.43,3.55.28,1.15.74,2.17,1.38,3.06s1.48,1.62,2.53,2.17c1.05.55,2.34.83,3.87.83s2.82-.28,3.87-.83c1.05-.55,1.89-1.27,2.53-2.17.64-.89,1.1-1.91,1.38-3.06.28-1.15.42-2.33.42-3.55v-18.53h3.06v18.87c0,1.25-.16,2.57-.49,3.97-.33,1.4-.91,2.7-1.76,3.89-.85,1.19-2,2.17-3.46,2.95-1.46.78-3.31,1.17-5.55,1.17Z"/>
      <path d="M264.89,69.95h8.5c1.53,0,2.92.16,4.17.49,1.25.33,2.32.82,3.21,1.49s1.58,1.5,2.06,2.51c.48,1.01.72,2.19.72,3.55s-.25,2.54-.74,3.55c-.5,1.01-1.19,1.84-2.08,2.51s-1.97,1.17-3.23,1.51c-1.26.34-2.66.51-4.19.51h-5.35v13.98h-3.06v-30.09ZM267.95,83.46h5.18c2.41,0,4.24-.47,5.48-1.4,1.25-.93,1.87-2.29,1.87-4.08s-.64-3.24-1.93-4.1c-1.29-.86-3.1-1.3-5.42-1.3h-5.18v10.88Z"/>
      <polygon points="200.92 23.41 225.02 23.41 225.02 34.65 200.92 34.65 200.92 46.17 227.89 46.17 227.89 58.06 187.39 58.06 187.39 0 226.7 0 226.7 11.89 200.92 11.89 200.92 23.41"/>
      <polygon points="70.45 23.41 94.56 23.41 94.56 34.65 70.45 34.65 70.45 46.17 97.43 46.17 97.43 58.06 56.92 58.06 56.92 0 96.23 0 96.23 11.89 70.45 11.89 70.45 23.41"/>
      <path class="cls-1" d="M0,111.93h283.46v11.89H0v-11.89Z"/>
      <path d="M191.04,100.04l-8.71-14.19c.52-.08,1.03-.18,1.51-.31,1.26-.34,2.34-.84,3.23-1.51s1.59-1.5,2.08-2.51c.5-1,.74-2.19.74-3.55s-.24-2.54-.72-3.55c-.48-1-1.17-1.84-2.06-2.51s-1.96-1.16-3.21-1.49c-1.25-.33-2.63-.49-4.17-.49h-8.93v30.09h3.06v-13.98h5.15l8.28,13.98h3.74ZM173.87,72.58h5.61c2.32,0,4.13.43,5.42,1.3,1.29.87,1.93,2.23,1.93,4.1s-.62,3.15-1.87,4.08c-1.25.93-3.07,1.4-5.48,1.4h-5.61v-10.88Z"/>
      <g>
        <g>
          <path d="M1.62,147.28H0v-11.56h3.71c.56,0,1.08.06,1.58.17.5.12.94.3,1.31.55s.67.58.89.99c.22.41.33.91.33,1.49,0,.85-.26,1.54-.78,2.06-.52.52-1.2.85-2.03,1l3.23,5.31h-1.96l-2.94-5.15h-1.73v5.15ZM1.62,140.77h1.86c.38,0,.73-.03,1.06-.1s.61-.17.86-.32.44-.34.58-.57c.14-.23.21-.52.21-.87s-.07-.64-.21-.87c-.14-.23-.33-.42-.56-.56-.23-.14-.51-.24-.82-.3-.32-.06-.65-.09-1-.09h-1.98v3.69Z"/>
          <path d="M11.59,145.84h6.04v1.44h-7.66v-11.56h7.42v1.42h-5.8v3.46h5.46v1.39h-5.46v3.85Z"/>
          <path d="M21.2,145.84h5.16v1.44h-6.78v-11.56h1.62v10.13Z"/>
          <path d="M39.05,141.48c0,.89-.16,1.71-.47,2.46-.31.75-.74,1.39-1.28,1.93-.54.54-1.19.96-1.94,1.26-.75.3-1.57.45-2.45.45s-1.7-.15-2.44-.45c-.75-.3-1.39-.72-1.94-1.26-.54-.54-.97-1.18-1.27-1.93-.31-.75-.46-1.57-.46-2.46s.15-1.73.46-2.48c.3-.75.73-1.38,1.27-1.91.54-.53,1.19-.94,1.94-1.23s1.56-.44,2.44-.44,1.7.15,2.45.44c.75.29,1.4.7,1.94,1.23.54.53.97,1.16,1.28,1.91.31.75.47,1.57.47,2.48ZM37.3,141.48c0-.63-.1-1.23-.31-1.79-.21-.56-.5-1.05-.88-1.48-.38-.42-.84-.76-1.38-1-.54-.25-1.15-.37-1.82-.37s-1.27.12-1.81.37c-.54.24-1,.58-1.37,1-.38.43-.67.92-.87,1.48s-.31,1.16-.31,1.79.1,1.25.31,1.81c.21.57.5,1.06.88,1.48.38.42.84.75,1.37.99.53.24,1.13.36,1.8.36s1.27-.12,1.81-.36c.54-.24,1.01-.57,1.39-.99.38-.42.68-.91.88-1.48.21-.57.31-1.17.31-1.81Z"/>
          <path d="M51.06,145.48c-.46.62-1.05,1.12-1.78,1.51-.73.39-1.61.58-2.63.58-.88,0-1.7-.15-2.44-.45-.75-.3-1.39-.72-1.93-1.26-.54-.54-.96-1.18-1.27-1.93-.31-.75-.46-1.57-.46-2.46s.16-1.73.47-2.48c.31-.75.74-1.38,1.29-1.91.55-.53,1.2-.94,1.95-1.23.75-.29,1.57-.44,2.45-.44.39,0,.79.04,1.19.11.4.08.79.19,1.16.34.37.15.71.34,1.01.56.31.22.57.48.78.78l-1.27.98c-.28-.39-.68-.72-1.2-.97-.52-.26-1.08-.38-1.67-.38-.68,0-1.28.12-1.82.37-.54.24-1,.58-1.38,1-.38.43-.68.92-.88,1.48s-.31,1.16-.31,1.79.1,1.26.3,1.83.49,1.06.87,1.48c.38.42.83.75,1.37.99s1.14.36,1.81.36,1.25-.13,1.78-.39.97-.64,1.32-1.14l1.29.88Z"/>
          <path d="M53.41,147.28h-1.8l5.01-11.56h1.47l4.97,11.56h-1.83l-1.18-2.84h-5.49l-1.16,2.84ZM55.14,143.01h4.33l-2.16-5.42-2.17,5.42Z"/>
          <path d="M67.34,147.28h-1.62v-10.14h-3.71v-1.42h9.03v1.42h-3.71v10.14Z"/>
          <path d="M74.14,147.28h-1.62v-11.56h1.62v11.56Z"/>
          <path d="M88.54,141.48c0,.89-.16,1.71-.47,2.46-.31.75-.74,1.39-1.28,1.93-.54.54-1.19.96-1.94,1.26-.75.3-1.57.45-2.45.45s-1.7-.15-2.44-.45c-.75-.3-1.39-.72-1.94-1.26-.54-.54-.97-1.18-1.27-1.93-.31-.75-.46-1.57-.46-2.46s.15-1.73.46-2.48c.3-.75.73-1.38,1.27-1.91.54-.53,1.19-.94,1.94-1.23s1.56-.44,2.44-.44,1.7.15,2.45.44c.75.29,1.4.7,1.94,1.23.54.53.97,1.16,1.28,1.91.31.75.47,1.57.47,2.48ZM86.79,141.48c0-.63-.1-1.23-.31-1.79-.21-.56-.5-1.05-.88-1.48-.38-.42-.84-.76-1.38-1-.54-.25-1.15-.37-1.82-.37s-1.27.12-1.81.37c-.54.24-1,.58-1.37,1-.38.43-.67.92-.87,1.48s-.31,1.16-.31,1.79.1,1.25.31,1.81c.21.57.5,1.06.88,1.48.38.42.84.75,1.37.99.53.24,1.13.36,1.8.36s1.27-.12,1.81-.36c.54-.24,1.01-.57,1.39-.99.38-.42.68-.91.88-1.48.21-.57.31-1.17.31-1.81Z"/>
          <path d="M98.84,144.96h.03v-9.25h1.62v11.56h-2.04l-6.11-9.44h-.03v9.44h-1.62v-11.56h2.11l6.04,9.25Z"/>
        </g>
        <g>
          <path d="M112.53,144.92h.03l2.71-9.21h1.78l2.69,9.21h.03l2.55-9.21h1.72l-3.4,11.56h-1.68l-2.81-9.29h-.03l-2.81,9.29h-1.68l-3.4-11.56h1.75l2.55,9.21Z"/>
          <path d="M136.89,141.48c0,.89-.16,1.71-.47,2.46-.31.75-.74,1.39-1.28,1.93-.54.54-1.19.96-1.94,1.26-.75.3-1.57.45-2.45.45s-1.7-.15-2.44-.45c-.75-.3-1.39-.72-1.94-1.26-.54-.54-.97-1.18-1.27-1.93-.31-.75-.46-1.57-.46-2.46s.15-1.73.46-2.48c.3-.75.73-1.38,1.27-1.91.54-.53,1.19-.94,1.94-1.23s1.56-.44,2.44-.44,1.7.15,2.45.44c.75.29,1.4.7,1.94,1.23.54.53.97,1.16,1.28,1.91.31.75.47,1.57.47,2.48ZM135.14,141.48c0-.63-.1-1.23-.31-1.79-.21-.56-.5-1.05-.88-1.48-.38-.42-.84-.76-1.38-1-.54-.25-1.15-.37-1.82-.37s-1.27.12-1.81.37c-.54.24-1,.58-1.37,1-.38.43-.67.92-.87,1.48s-.31,1.16-.31,1.79.1,1.25.31,1.81c.21.57.5,1.06.88,1.48.38.42.84.75,1.37.99.53.24,1.13.36,1.8.36s1.27-.12,1.81-.36c.54-.24,1.01-.57,1.39-.99.38-.42.68-.91.88-1.48.21-.57.31-1.17.31-1.81Z"/>
          <path d="M140.66,147.28h-1.62v-11.56h3.71c.55,0,1.08.06,1.58.17.5.12.94.3,1.31.55.38.25.67.58.89.99.22.41.33.91.33,1.49,0,.85-.26,1.54-.78,2.06-.52.52-1.2.85-2.03,1l3.23,5.31h-1.96l-2.94-5.15h-1.73v5.15ZM140.66,140.77h1.86c.38,0,.73-.03,1.06-.1s.61-.17.86-.32c.25-.15.44-.34.58-.57.14-.23.21-.52.21-.87s-.07-.64-.21-.87c-.14-.23-.33-.42-.56-.56-.23-.14-.51-.24-.82-.3s-.65-.09-1-.09h-1.98v3.69Z"/>
          <path d="M150.63,145.84h5.16v1.44h-6.78v-11.56h1.62v10.13Z"/>
          <path d="M157.29,135.71h3.97c.74,0,1.48.11,2.22.33.74.22,1.41.56,2.01,1.03.6.47,1.08,1.07,1.45,1.8.37.73.56,1.61.56,2.63s-.19,1.85-.56,2.57-.85,1.32-1.45,1.8c-.6.47-1.27.83-2.01,1.06-.74.23-1.48.35-2.22.35h-3.97v-11.56ZM158.91,145.85h2.03c.7,0,1.34-.1,1.94-.29.59-.2,1.11-.48,1.54-.85.43-.37.76-.83,1-1.37.24-.54.36-1.16.36-1.85s-.12-1.35-.36-1.89-.57-1-1-1.36c-.43-.36-.94-.64-1.54-.83-.59-.19-1.24-.29-1.94-.29h-2.03v8.74Z"/>
          <path d="M172.38,144.92h.03l2.71-9.21h1.78l2.7,9.21h.03l2.55-9.21h1.72l-3.4,11.56h-1.68l-2.81-9.29h-.03l-2.81,9.29h-1.68l-3.4-11.56h1.75l2.55,9.21Z"/>
          <path d="M186.98,147.28h-1.62v-11.56h1.62v11.56Z"/>
          <path d="M189.73,135.71h3.97c.74,0,1.48.11,2.22.33.74.22,1.41.56,2.01,1.03.6.47,1.08,1.07,1.45,1.8.37.73.56,1.61.56,2.63s-.19,1.85-.56,2.57-.85,1.32-1.45,1.8c-.6.47-1.27.83-2.01,1.06-.74.23-1.48.35-2.22.35h-3.97v-11.56ZM191.35,145.85h2.03c.7,0,1.34-.1,1.94-.29.59-.2,1.11-.48,1.54-.85.43-.37.76-.83,1-1.37.24-.54.36-1.16.36-1.85s-.12-1.35-.36-1.89-.57-1-1-1.36c-.43-.36-.94-.64-1.54-.83-.59-.19-1.24-.29-1.94-.29h-2.03v8.74Z"/>
          <path d="M203.68,145.84h6.04v1.44h-7.66v-11.56h7.42v1.42h-5.8v3.46h5.46v1.39h-5.46v3.85Z"/>
        </g>
        <g>
          <path d="M224.04,144.6h.03l3.41-8.89h2.52v11.56h-1.62v-9.67h-.03l-3.84,9.67h-1.03l-3.82-9.67h-.03v9.67h-1.57v-11.56h2.52l3.46,8.89Z"/>
          <path d="M244.42,141.48c0,.89-.16,1.71-.47,2.46s-.74,1.39-1.28,1.93c-.55.54-1.19.96-1.94,1.26-.75.3-1.57.45-2.45.45s-1.7-.15-2.44-.45c-.75-.3-1.39-.72-1.94-1.26-.55-.54-.97-1.18-1.27-1.93-.31-.75-.46-1.57-.46-2.46s.15-1.73.46-2.48c.3-.75.73-1.38,1.27-1.91.54-.53,1.19-.94,1.94-1.23.75-.29,1.56-.44,2.44-.44s1.7.15,2.45.44,1.4.7,1.94,1.23c.54.53.97,1.16,1.28,1.91.31.75.47,1.57.47,2.48ZM242.67,141.48c0-.63-.1-1.23-.31-1.79-.21-.56-.5-1.05-.88-1.48-.38-.42-.84-.76-1.38-1-.54-.25-1.15-.37-1.82-.37s-1.27.12-1.81.37c-.54.24-1,.58-1.37,1-.38.43-.67.92-.87,1.48s-.31,1.16-.31,1.79.1,1.25.31,1.81c.21.57.5,1.06.88,1.48.38.42.84.75,1.37.99.53.24,1.13.36,1.8.36s1.27-.12,1.81-.36c.54-.24,1.01-.57,1.39-.99.38-.42.68-.91.88-1.48.21-.57.31-1.17.31-1.81Z"/>
          <path d="M249.97,145.19h.05l3.48-9.47h1.75l-4.54,11.56h-1.5l-4.51-11.56h1.8l3.48,9.47Z"/>
          <path d="M258.23,147.28h-1.62v-11.56h1.62v11.56Z"/>
          <path d="M269.13,144.96h.03v-9.25h1.62v11.56h-2.04l-6.11-9.44h-.03v9.44h-1.62v-11.56h2.11l6.04,9.25Z"/>
          <path d="M281.86,141.98h-2.72v-1.39h4.32v5.96c-.61.33-1.27.58-1.99.75s-1.5.26-2.35.26c-.9,0-1.73-.15-2.49-.45-.76-.3-1.41-.72-1.95-1.26-.54-.54-.97-1.18-1.27-1.93-.31-.75-.46-1.56-.46-2.46s.16-1.73.47-2.47c.31-.75.74-1.38,1.29-1.91.55-.53,1.2-.94,1.95-1.23s1.57-.44,2.45-.44,1.75.14,2.47.41c.72.27,1.33.64,1.8,1.09l-1.13,1.18c-.35-.38-.79-.69-1.33-.91-.54-.23-1.14-.34-1.8-.34s-1.29.12-1.83.37c-.54.24-1.01.58-1.39,1s-.68.92-.88,1.48c-.21.56-.31,1.16-.31,1.79s.1,1.25.31,1.81c.21.57.5,1.06.88,1.48.38.42.85.75,1.4.99s1.18.36,1.86.36c.54,0,1.05-.05,1.5-.15.46-.1.85-.24,1.19-.42v-3.56Z"/>
        </g>
      </g>
    </g>
  </g>
</svg>