<?xml version="1.0" encoding="UTF-8"?>
<svg width="146.95mm" height="21.082mm" version="1.1" viewBox="0 0 146.95 21.082" xmlns="http://www.w3.org/2000/svg"><g transform="translate(-26.871 -98.549)"><g stroke-width=".26458" aria-label="Relocation+"><g stroke-width=".26458"><path d="m26.871 118.11 2.1082-0.254v-15.799l-1.9812-0.3302v-1.2446h3.3274q0.7112 0 1.9304-0.1016 1.27-0.1016 1.9812-0.1016 3.7338 0 5.3086 1.2192 1.6002 1.1938 1.6002 3.7846 0 1.8034-1.016 3.302-0.9906 1.4986-2.7432 2.032 0.8128 0.4318 1.4986 1.4986 0.7112 1.0414 1.7272 2.921 0.7874 1.4224 1.1938 2.0828 0.4318 0.6604 0.8128 0.7366l0.9906 0.254v1.2446h-3.5052q-0.4064 0-0.9144-0.8636-0.508-0.889-1.3462-2.7178-0.9144-2.0066-1.6002-3.175-0.6604-1.1938-1.3208-1.524-2.7178 0-3.2258-0.0254v6.8072l2.5146 0.254v1.2446h-7.3406zm7.8486-8.4074q1.6256 0 2.5654-1.0668t0.9398-3.175q0-1.8542-0.9652-2.8194-0.9398-0.9906-3.2766-0.9906-0.8128 0-1.6256 0.1016-0.508 0.0508-0.6604 0.0508v7.874q0.381 0.0254 1.5748 0.0254z"/><path d="m50.953 119.63q-3.0734 0-4.699-2.0066-1.6002-2.0066-1.6002-5.3594 0-2.2098 0.8382-3.8862t2.3368-2.5908q1.524-0.9144 3.4544-0.9144 2.3622 0 3.6576 1.3208 1.3208 1.2954 1.397 3.7338 0 1.5494-0.1778 2.3622h-8.7376q0.0508 2.5146 1.1684 4.064 1.1176 1.524 3.175 1.524 1.016 0 2.1082-0.3556 1.1176-0.381 1.7272-0.889l0.4826 1.1176q-0.7366 0.762-2.1844 1.3208t-2.9464 0.5588zm2.5908-8.6868q0.0762-0.5334 0.0762-1.0922-0.0254-1.651-0.7112-2.5908-0.6604-0.9652-2.1082-0.9652-1.4732 0-2.3622 1.0668-0.8636 1.0668-0.9906 3.5814z"/><path d="m60.4 100.4-2.0574-0.2794v-1.0922l4.0894-0.4826h0.0508l0.5588 0.381v18.974l2.159 0.2032v1.2446h-6.858v-1.2446l2.0574-0.2286z"/><path d="m67.029 112.26q0-2.286 0.9398-3.9624t2.4638-2.54q1.5494-0.889 3.302-0.889 3.2004 0 4.8006 2.032 1.6256 2.032 1.6256 5.334 0 2.3114-0.9398 3.9878t-2.4892 2.54q-1.524 0.8636-3.2766 0.8636-3.2004 0-4.826-2.032-1.6002-2.032-1.6002-5.334zm6.5786 5.9182q1.7526 0 2.6924-1.4478t0.9398-4.2926q0-2.8194-0.8636-4.4704t-2.7686-1.651q-1.7526 0-2.7178 1.4478-0.9398 1.4478-0.9398 4.2926 0 2.8194 0.889 4.4704t2.7686 1.651z"/><path d="m82.153 112.39q0-2.1082 0.8128-3.81 0.8382-1.7018 2.4384-2.6924 1.6256-1.016 3.8862-1.016 1.0922 0 1.8796 0.2032t1.8796 0.5588l-0.1016 3.9116h-1.651l-0.5588-2.5908q-0.1524-0.7112-1.9304-0.7112t-2.8194 1.4478q-1.016 1.4224-1.016 4.064 0 2.9972 1.143 4.572 1.1684 1.5494 3.0226 1.5494 1.0668 0 2.0066-0.3302 0.9652-0.3302 1.651-0.7874l0.4826 1.016q-0.6858 0.7112-2.032 1.2954-1.3208 0.5588-2.6924 0.5588-2.0828 0-3.5306-0.9398-1.4224-0.9398-2.159-2.5654-0.7112-1.651-0.7112-3.7338z"/><path d="m95.505 115.54q0-2.3876 2.3876-3.5052 2.3876-1.143 6.0452-1.2192v-0.7112q0-1.1938-0.254-1.8796t-0.889-0.9906q-0.6096-0.3302-1.7526-0.3302-1.2954 0-2.3368 0.381-1.016 0.3556-2.032 0.889l-0.635-1.3208q0.3302-0.2794 1.2192-0.7366t2.0574-0.8128q1.1684-0.3556 2.3368-0.3556 1.8034 0 2.8448 0.508 1.0668 0.4826 1.524 1.5748t0.4572 2.921v8.1534h1.4986v1.1176q-0.508 0.127-1.2954 0.254-0.762 0.127-1.3462 0.127-0.7112 0-0.9652-0.2286-0.254-0.2032-0.254-0.9398v-0.8382q-0.762 0.762-1.8796 1.397-1.0922 0.635-2.4892 0.635-1.8288 0-3.048-1.0414-1.1938-1.0668-1.1938-3.048zm5.334 2.3622q0.6604 0 1.524-0.4064t1.5748-0.9652v-4.3688q-2.7686 0-4.191 0.8636-1.397 0.8382-1.397 2.2098t0.6604 2.032q0.6858 0.635 1.8288 0.635z"/><path d="m114.09 119.61q-1.4478 0-2.159-0.6604t-0.7112-2.2606v-9.7536h-1.8288v-1.143q0.127-0.0254 0.7112-0.1778t0.7874-0.2794q0.4064-0.2286 0.635-0.9144 0.2032-0.4826 0.4826-1.5494t0.3302-1.27h1.4986l0.0508 3.6576h4.2418v1.6764h-4.2418v7.7978q0 1.4478 0.0762 2.032 0.1016 0.5842 0.381 0.762 0.3048 0.1778 1.016 0.1778 0.6858 0 1.4986-0.1778 0.8382-0.1778 1.2954-0.381l0.381 1.143q-0.6096 0.4572-1.9812 0.889-1.3462 0.4318-2.4638 0.4318z"/><path d="m123.06 102.71q-0.8128 0-1.2192-0.4572t-0.4064-1.1684q0-0.8128 0.4826-1.3462 0.508-0.5334 1.3716-0.5334t1.27 0.4572q0.4064 0.4572 0.4064 1.1684 0 0.8636-0.508 1.3716-0.4826 0.508-1.3716 0.508zm-1.016 4.4958-1.9304-0.4572v-1.3462l3.937-0.4826h0.0508l0.5842 0.4572v12.522l2.032 0.2032v1.2446h-6.731v-1.2446l2.0574-0.2286z"/><path d="m128.54 112.26q0-2.286 0.9398-3.9624t2.4638-2.54q1.5494-0.889 3.302-0.889 3.2004 0 4.8006 2.032 1.6256 2.032 1.6256 5.334 0 2.3114-0.9398 3.9878t-2.4892 2.54q-1.524 0.8636-3.2766 0.8636-3.2004 0-4.826-2.032-1.6002-2.032-1.6002-5.334zm6.5786 5.9182q1.7526 0 2.6924-1.4478t0.9398-4.2926q0-2.8194-0.8636-4.4704t-2.7686-1.651q-1.7526 0-2.7178 1.4478-0.9398 1.4478-0.9398 4.2926 0 2.8194 0.889 4.4704t2.7686 1.651z"/><path d="m145.5 107.21-1.8288-0.4572v-1.3716l3.6322-0.4572h0.0762l0.5334 0.4572v1.0668l-0.0254 0.6096q0.9144-0.8128 2.413-1.4732t2.8702-0.6604q1.6002 0 2.4638 0.6096 0.889 0.6096 1.2446 1.8796 0.3556 1.2446 0.3556 3.3782v7.112l1.778 0.1778v1.27h-6.0198v-1.2446l1.5748-0.2032v-7.1374q0-1.4986-0.2032-2.3368-0.2032-0.8636-0.762-1.27-0.5588-0.4318-1.6256-0.4318-0.9144 0-1.9558 0.4572t-1.8542 1.0668v9.6266l1.7272 0.2286v1.2446h-5.9944v-1.2446l1.6002-0.2286z"/></g><path d="m167.19 110.41-0.0762-2.159v-2.794h1.9558v2.794l-0.127 2.159 1.9304-0.127h2.9464v1.9304h-2.9464l-1.9304-0.0762 0.127 2.1082v2.9718h-1.9558v-2.9718l0.0762-2.1082-2.2098 0.0762h-2.6162v-1.9304h2.6162z" fill="#fea500"/></g></g></svg>
